<svg width="726" height="521" viewBox="0 0 726 521" fill="none" xmlns="http://www.w3.org/2000/svg">
<path d="M474.63 379.74C477.26 382.8 476.44 385.74 473.77 388.2C472.701 389.177 471.446 389.928 470.08 390.409C468.714 390.89 467.265 391.091 465.82 391C464.357 391.109 462.887 390.905 461.508 390.404C460.129 389.902 458.872 389.113 457.82 388.09C454.93 385.33 454.56 382.09 457.42 379.15C460.86 375.51 471.33 375.94 474.63 379.74Z" fill="black"/>
<path d="M578.85 466.8C572.67 425.35 547.85 398.17 509.62 382.96C503.2 380.41 501.03 378.29 502.84 371.67C503.72 368.5 503.06 364.85 502.76 361.45C501.57 347.83 496.24 335.87 487.66 325.3C498.87 318.46 502.54 310.3 498.87 300.58C497.3 296.41 494.53 293.28 489.8 292.64C485.26 292.02 481.39 293.21 478.72 297.17C476.82 300.01 474.6 302.71 473.22 305.8C471.33 310.05 469.22 310.56 464.99 308.56C447.21 300.16 429.17 300.26 411.25 308.25C407.73 309.81 406.04 310.46 404.71 305.59C402.42 297.16 392.88 290.96 384.76 291.82C380.047 292.242 375.609 294.222 372.146 297.447C368.684 300.672 366.395 304.959 365.64 309.63C364.27 317.42 369.3 327.16 377.43 330.07C382.96 332.07 381.84 334.07 379.93 338.07C367.67 363.53 370.4 387.8 388.6 409.07C405.71 429.07 428.1 435.9 454.03 429.87C465.69 427.15 475.37 420.73 485.33 412.24C484.8 419.49 481.9 424.38 479.42 429.36C471.85 444.57 461.81 457.36 444.69 462.56C442.19 463.31 442.33 464.88 442.33 466.69C442.33 481.02 442.23 495.35 442.43 509.69C442.53 516.6 445.97 519.98 452.95 520.34C458.19 520.61 463.44 520.42 468.69 520.42C486.6 520.42 487.76 519.11 487.92 501.25C488.03 489.16 487.03 477.04 488.57 464.99C489.29 459.36 492.47 455.34 497.97 454.52C506.77 453.21 515.69 453.96 524.56 454.18C525.487 454.209 526.377 454.555 527.08 455.161C527.782 455.768 528.255 456.597 528.42 457.51C528.92 459.59 527.69 461.06 526.14 462.07C523.95 463.48 521.59 464.65 519.29 465.88C513.57 468.98 508.29 472.62 504.21 477.79C497.45 486.36 496.69 495.79 500.43 505.7C504 515 511.65 519.39 521 520.09C530.263 520.715 539.557 520.715 548.82 520.09C552.366 519.854 555.824 518.88 558.972 517.23C562.119 515.581 564.888 513.292 567.1 510.51C577.81 497.76 581.18 482.34 578.85 466.8ZM422.09 365.15C422.015 364.088 422.154 363.022 422.499 362.014C422.844 361.007 423.388 360.079 424.099 359.287C424.81 358.494 425.673 357.853 426.637 357.4C427.601 356.948 428.646 356.694 429.71 356.654C430.774 356.614 431.835 356.788 432.83 357.166C433.826 357.544 434.735 358.119 435.504 358.855C436.272 359.592 436.885 360.476 437.305 361.454C437.726 362.432 437.945 363.485 437.95 364.55C437.95 369.55 435.35 372.3 430.44 372.7C429.391 372.775 428.338 372.636 427.344 372.294C426.35 371.951 425.435 371.411 424.655 370.705C423.875 370 423.246 369.144 422.805 368.19C422.364 367.235 422.121 366.201 422.09 365.15V365.15ZM478.18 377.42C482.54 382.42 481.7 388.79 476.71 394.29C465.71 406.39 447.1 406.55 434.16 394.15C440.94 390.94 442.3 384.76 443.89 378.71C444.7 375.61 445.18 372.38 446.34 369.41C450.1 359.76 455.44 358.24 464.16 364.27C464.959 362.691 465.875 361.173 466.9 359.73C467.565 358.904 468.392 358.223 469.33 357.728C470.268 357.233 471.298 356.935 472.355 356.853C473.412 356.771 474.475 356.905 475.479 357.249C476.482 357.592 477.405 358.137 478.19 358.85C481.57 361.85 482.24 367.3 478.61 370.03C474.98 372.76 475.52 374.34 478.18 377.42V377.42Z" fill="black"/>
<path d="M597.56 398.48C606.49 400.64 615.4 402.91 624.36 404.91C626.84 405.46 629.61 405.62 629.56 408.7C629.56 411.59 626.8 412.35 624.35 412.86C611.52 415.47 598.76 415.72 586.14 411.65C584.799 411.243 583.437 410.909 582.06 410.65C581.78 410.59 581.41 410.99 580.35 411.6C584.35 415.6 589.5 417.47 593.77 420.52C596.64 422.58 602.06 423.33 600.29 428.52C598.61 433.44 593.97 431.4 590.29 431.14C584.6 430.74 580.49 428.47 576.9 423.49C560.56 400.79 539.56 384.13 512.28 376.25C509.35 375.4 508.1 374.25 508.68 370.72C510.361 360.726 509.829 350.485 507.12 340.72C506.46 338.35 506.12 336.01 508.2 333.97C513.52 328.74 518.69 323.36 524.09 318.22C525.78 316.61 527.92 314.81 530.55 316.42C533.18 318.03 533.02 320.72 532.46 323.42C531.05 330.24 527.82 336.27 524.46 342.26C523.46 344.11 521.65 345.66 521.91 349.26C526.98 346.26 529.56 341.75 532.74 337.96C533.534 337.037 534.133 335.962 534.5 334.8C539.65 316.89 554.39 305.94 565.37 292.28C566.89 290.4 568.463 288.563 570.09 286.77C571.83 284.87 573.49 282.34 576.62 283.98C579.99 285.76 579.83 288.71 578.77 291.85C575.716 300.827 572.005 309.567 567.67 318C566.78 319.73 565.32 321.25 565.4 323.64C567.4 324.44 568.29 322.9 569.23 321.79C576.668 313.261 582.462 303.429 586.32 292.79C587.005 290.7 588.271 288.848 589.97 287.45C627.33 255.69 657.58 217.85 684.06 176.82C691.613 165.133 698.707 153.177 705.34 140.95C706.73 138.4 708.34 135.58 711.78 136.95C714.78 138.17 714.13 141.16 713.78 143.82C709.17 177.69 694.96 207.31 673.89 233.88C670.77 237.88 667.68 241.8 664.57 245.76C663.01 247.06 662.27 249.13 660.42 250.16C659.19 251.1 657.29 252.22 658.92 253.8C660.55 255.38 661.19 252.92 662.14 252.14C682.779 235.028 701.349 215.562 717.47 194.14C718.95 192.2 720.8 189.95 723.47 191.71C726.14 193.47 724.94 196.36 724.18 198.86C716.559 223.859 702.928 246.609 684.48 265.12C678.12 271.58 671.48 277.77 665.06 284.12C663.69 285.47 661.7 286.44 661.49 288.78C663.91 290.14 665.21 288.12 666.75 287.04C683.59 275.17 699.75 262.44 714.2 247.71C714.991 246.792 715.861 245.946 716.8 245.18C718.36 244.07 719.9 242.18 722.12 243.84C724.34 245.5 723.54 247.28 722.64 249.24C715.43 265 706.44 279.45 694.5 292C681.5 305.75 666.21 316.54 650.13 326.31C648.52 327.31 646.19 327.52 646.02 330.14C648.25 331.55 650.02 329.82 651.66 329.14C667.06 322.56 682.13 315.29 696.34 306.37C698.54 304.99 700.85 302.87 703.29 305.52C705.73 308.17 703.21 310.39 701.79 312.4C688.923 330.946 670.406 344.837 649 352C646.35 352.91 643.35 353.46 640.15 357.35C649.35 355.26 656.94 353.56 664.52 351.8C667.86 351.02 671.17 350.15 674.52 349.25C676.52 348.7 678.65 348.11 679.85 350.41C681.13 352.87 679.62 354.49 677.74 356.01C665.293 366.037 650.492 372.721 634.74 375.43C630.74 376.15 626.39 375.63 622.74 377.91V379.78H639.74C644.18 379.78 648.62 379.78 653.06 379.68C655.55 379.61 658.45 379.38 659.25 382.13C660.25 385.43 657.09 386.54 654.77 387.59C645.581 391.873 635.785 394.71 625.73 396C618.53 396.966 611.255 397.264 604 396.89C601.68 396.75 598.83 394.38 597.56 398.48Z" fill="black"/>
<path d="M386.63 431.38C393.04 438.98 399.94 445.9 408.09 451.43C411.41 453.69 414.64 456.68 418.35 457.67C429.16 460.55 430.8 467.67 430 477.49C429.2 487.49 429.9 497.65 429.84 507.73C429.78 516.9 426.38 520.29 417.14 520.39C410.69 520.47 404.22 520.61 397.78 520.27C389.22 519.81 385.98 516.69 385.92 508.27C385.74 483.06 385.85 457.85 385.87 432.65C385.87 432.37 386.22 432.07 386.63 431.38Z" fill="black"/>
<path d="M473.77 388.2C472.701 389.177 471.446 389.928 470.08 390.409C468.714 390.89 467.265 391.091 465.82 391C464.357 391.109 462.887 390.905 461.508 390.404C460.129 389.902 458.872 389.113 457.82 388.09C454.93 385.33 454.56 382.09 457.42 379.15C460.89 375.51 471.36 375.94 474.66 379.74C477.26 382.8 476.44 385.7 473.77 388.2Z" fill="black"/>
<path d="M473.77 388.2C472.701 389.177 471.446 389.928 470.08 390.409C468.714 390.89 467.265 391.091 465.82 391C464.357 391.109 462.887 390.905 461.508 390.404C460.129 389.902 458.872 389.113 457.82 388.09C454.93 385.33 454.56 382.09 457.42 379.15C460.89 375.51 471.36 375.94 474.66 379.74C477.26 382.8 476.44 385.7 473.77 388.2Z" fill="black"/>
<path d="M36.55 54.44V76.44C36.55 83.56 42.16 84.02 52.32 83.44V106.19C21.38 109.94 11.37 100.39 11.37 77V54.44H0V30.33H11.37V16.68L36.55 9.1V30.33H52.32V54.44H36.55Z" fill="black"/>
<path d="M102.05 86.74C107.171 86.8655 112.134 84.9561 115.85 81.43L134.05 94.17C126.47 103.72 114.94 108.27 101.45 108.27C75.21 108.27 59 90.83 59 68.39C59 45.64 75.68 28.21 99.33 28.21C122.08 28.21 138.46 45.34 138.46 68.09C138.478 71.2541 138.122 74.4093 137.4 77.49H85.07C88.1 84.77 94.77 86.74 102.05 86.74ZM113.88 60.05C111.61 52.17 105.69 49.44 99.63 49.44C92.35 49.44 86.89 53.07 84.77 60.05H113.88Z" fill="black"/>
<path d="M227.61 0V106.15H202.44V99.15C197.59 104.92 190.61 108.25 180.9 108.25C160.58 108.25 145.27 90.97 145.27 68.25C145.27 45.53 160.58 28.25 180.9 28.25C190.61 28.25 197.59 31.58 202.44 37.34V0H227.61ZM202.44 68.24C202.44 58.38 195.92 51.71 186.52 51.71C177.12 51.71 170.59 58.38 170.59 68.24C170.59 78.1 177.11 84.77 186.52 84.77C195.93 84.77 202.44 78.1 202.44 68.24Z" fill="black"/>
<path d="M320.71 0V106.15H295.54V99.15C290.69 104.92 283.71 108.25 274.01 108.25C253.69 108.25 238.37 90.97 238.37 68.25C238.37 45.53 253.69 28.25 274.01 28.25C283.71 28.25 290.69 31.58 295.54 37.34V0H320.71ZM295.54 68.24C295.54 58.38 289.02 51.71 279.62 51.71C270.22 51.71 263.7 58.38 263.7 68.24C263.7 78.1 270.22 84.77 279.62 84.77C289.02 84.77 295.54 78.1 295.54 68.24Z" fill="black"/>
<path d="M411.24 30.33L385.31 104.94C377.31 127.94 362.87 137.54 339.51 136.48V112.82C350.28 112.82 354.98 110.55 358.32 103.72L328 30.33H356.2L371.52 74.33L383.35 30.33H411.24Z" fill="black"/>
<path d="M377.88 192.49C377.88 215.24 362.57 232.49 342.25 232.49C332.54 232.49 325.57 229.16 320.71 223.39V230.39H295.54V124.25H320.71V161.55C325.57 155.79 332.54 152.46 342.25 152.46C362.57 152.46 377.88 169.74 377.88 192.49ZM352.56 192.49C352.56 182.63 346.04 175.96 336.64 175.96C327.24 175.96 320.71 182.63 320.71 192.49C320.71 202.35 327.24 209 336.64 209C346.04 209 352.56 202.35 352.56 192.49Z" fill="black"/>
<path d="M428.22 211C433.341 211.126 438.304 209.216 442.02 205.69L460.22 218.43C452.64 227.98 441.11 232.53 427.62 232.53C401.38 232.53 385.16 215.09 385.16 192.65C385.16 169.9 401.84 152.47 425.49 152.47C448.24 152.47 464.62 169.6 464.62 192.35C464.638 195.514 464.282 198.669 463.56 201.75H411.24C414.27 209 421 211 428.22 211ZM440.05 184.31C437.78 176.43 431.86 173.7 425.8 173.7C418.52 173.7 413.06 177.33 410.94 184.31H440.05Z" fill="black"/>
<path d="M553.78 154.58V230.4H528.61V223.4C523.76 229.17 516.78 232.5 507.07 232.5C486.75 232.5 471.44 215.22 471.44 192.5C471.44 169.78 486.75 152.5 507.07 152.5C516.78 152.5 523.76 155.83 528.61 161.59V154.59L553.78 154.58ZM528.61 192.49C528.61 182.63 522.09 175.96 512.69 175.96C503.29 175.96 496.76 182.63 496.76 192.49C496.76 202.35 503.28 209 512.69 209C522.1 209 528.61 202.35 528.61 192.49Z" fill="black"/>
<path d="M616.25 153.06V181C606.25 179.49 593.51 184 593.51 199V230.4H568.33V154.58H593.51V168.68C596.54 158.37 606.09 153.06 616.25 153.06Z" fill="black"/>
<path d="M135.72 316.66C135.72 339.4 120.4 356.66 100.08 356.66C90.37 356.66 83.4 353.32 78.55 347.56V354.56H53.37V248.42H78.55V285.72C83.4 279.96 90.37 276.62 100.08 276.62C120.4 276.62 135.72 293.91 135.72 316.66ZM110.39 316.66C110.39 306.8 103.87 300.13 94.47 300.13C85.07 300.13 78.55 306.8 78.55 316.66C78.55 326.52 85.07 333.18 94.47 333.18C103.87 333.18 110.39 326.51 110.39 316.66Z" fill="black"/>
<path d="M144.66 258C144.66 255.12 145.514 252.305 147.114 249.911C148.714 247.517 150.988 245.65 153.648 244.548C156.309 243.446 159.236 243.158 162.061 243.72C164.885 244.282 167.479 245.668 169.516 247.705C171.552 249.741 172.938 252.335 173.5 255.159C174.062 257.984 173.774 260.911 172.672 263.572C171.57 266.232 169.704 268.506 167.309 270.106C164.915 271.706 162.1 272.56 159.22 272.56C155.364 272.542 151.671 271.002 148.945 268.275C146.218 265.549 144.678 261.856 144.66 258V258ZM146.66 278.78H171.8V354.6H146.63L146.66 278.78Z" fill="black"/>
<path d="M234.28 277.23V305.13C224.28 303.61 211.53 308.13 211.53 323.18V354.57H186.36V278.75H211.53V292.85C214.56 282.54 224.12 277.23 234.28 277.23Z" fill="black"/>
<path d="M320.56 248.42V354.57H295.39V347.57C290.53 353.33 283.56 356.67 273.85 356.67C253.53 356.67 238.22 339.38 238.22 316.67C238.22 293.96 253.53 276.67 273.85 276.67C283.56 276.67 290.53 280.01 295.39 285.77V248.47L320.56 248.42ZM295.39 316.66C295.39 306.8 288.87 300.13 279.47 300.13C270.07 300.13 263.54 306.8 263.54 316.66C263.54 326.52 270.06 333.18 279.47 333.18C288.88 333.18 295.39 326.51 295.39 316.66V316.66Z" fill="black"/>
</svg>
